<?xml version="1.0" encoding="iso-8859-1"?>
<!-- Generator: Adobe Illustrator 19.0.0, SVG Export Plug-In . SVG Version: 6.00 Build 0)  -->
<svg version="1.1" id="Capa_1" xmlns="http://www.w3.org/2000/svg" xmlns:xlink="http://www.w3.org/1999/xlink" x="0px" y="0px"
	 viewBox="0 0 512 512" style="enable-background:new 0 0 512 512;" xml:space="preserve">
<g>
	<g>
		<rect x="128" y="93.867" width="221.867" height="25.6"/>
	</g>
</g>
<g>
	<g>
		<rect x="162.133" y="187.733" width="51.2" height="17.067"/>
	</g>
</g>
<g>
	<g>
		<path d="M369.869,246.187c-1.835-1.801-2.842-4.232-2.842-6.827c0-2.577,1.007-5.001,2.825-6.827l6.605-6.605l-56.465-16.939
			l10.803,36.019l6.135,20.446l6.161-6.161c2.167-2.167,5.018-3.26,7.876-3.26c2.85,0,5.7,1.084,7.876,3.26l18.756,18.765
			l12.066-12.075L369.869,246.187z"/>
	</g>
</g>
<g>
	<g>
		<path d="M128.009,136.533v102.4h183.142c-2.637-8.798-5.282-17.604-7.919-26.402c-0.99-3.285-1.971-6.571-2.961-9.847
			c-1.254-4.19-2.679-8.491,0.708-12.177c0.085-0.094,0.171-0.179,0.256-0.265c4.284-4.309,10.146-1.647,15.113-0.162
			c5.513,1.655,11.017,3.302,16.521,4.958c5.666,1.698,11.341,3.405,17.007,5.103v-63.607H128.009z M230.4,213.333
			c0,4.71-3.823,8.533-8.533,8.533H153.6c-4.71,0-8.533-3.823-8.533-8.533V179.2c0-4.71,3.823-8.533,8.533-8.533h68.267
			c4.71,0,8.533,3.823,8.533,8.533V213.333z"/>
	</g>
</g>
<g>
	<g>
		<path d="M469.333,332.8H42.667H0v34.125c0,18.825,15.317,34.142,34.142,34.142H204.39c-2.022,33.843-16.111,51.2-42.257,51.2
			h-17.067c-14.114,0-25.6,11.486-25.6,25.6s11.486,25.6,25.6,25.6h221.867c14.114,0,25.6-11.486,25.6-25.6s-11.486-25.6-25.6-25.6
			h-17.067c-26.146,0-40.226-17.357-42.257-51.2h170.249c18.825,0,34.142-15.317,34.142-34.142V332.8H469.333z M230.4,349.867h51.2
			c4.71,0,8.533,3.823,8.533,8.533s-3.823,8.533-8.533,8.533h-51.2c-4.71,0-8.533-3.823-8.533-8.533S225.69,349.867,230.4,349.867z
			 M308.301,452.267h-104.61c10.513-11.639,16.7-28.971,17.937-51.2h68.736C291.61,423.296,297.788,440.627,308.301,452.267z"/>
	</g>
</g>
<g>
	<g>
		<path d="M51.2,59.733v256h409.6v-256H51.2z M407.757,272.026l-24.132,24.141c-1.604,1.604-3.772,2.5-6.033,2.5
			c-2.261,0-4.437-0.896-6.033-2.5l-20.599-20.608l-12.066,12.075c-2.133,2.125-5.222,2.961-8.124,2.244
			c-2.91-0.734-5.222-2.944-6.084-5.828L316.271,256H119.475c-4.71,0-8.533-3.823-8.533-8.533V128V85.333
			c0-4.71,3.823-8.533,8.533-8.533h238.933c4.71,0,8.533,3.823,8.533,8.533V128v77.261l28.109,8.431
			c2.876,0.87,5.086,3.174,5.82,6.084c0.734,2.91-0.12,5.999-2.244,8.124l-11.46,11.46l20.599,20.599
			C411.093,263.296,411.093,268.698,407.757,272.026z"/>
	</g>
</g>
<g>
	<g>
		<path d="M477.858,8.533H34.142C15.317,8.533,0,23.851,0,42.675v273.058h34.133V51.2c0-4.71,3.823-8.533,8.533-8.533h426.667
			c4.71,0,8.533,3.823,8.533,8.533v264.533H512V42.675C512,23.851,496.683,8.533,477.858,8.533z"/>
	</g>
</g>
<g>
</g>
<g>
</g>
<g>
</g>
<g>
</g>
<g>
</g>
<g>
</g>
<g>
</g>
<g>
</g>
<g>
</g>
<g>
</g>
<g>
</g>
<g>
</g>
<g>
</g>
<g>
</g>
<g>
</g>
</svg>
